<svg xmlns="http://www.w3.org/2000/svg" viewBox="0 -0.5 200 50" shape-rendering="crispEdges">
<metadata>Made with Pixels to Svg https://codepen.io/shshaw/pen/XbxvNj</metadata>
<path stroke="#000000" d="M11 0h179M11 1h179M11 2h179M11 3h179M11 4h179M6 5h5M190 5h5M6 6h5M190 6h5M6 7h5M190 7h5M6 8h5M190 8h5M6 9h5M190 9h5M1 10h5M195 10h5M1 11h5M195 11h5M1 12h5M195 12h5M1 13h5M195 13h5M1 14h5M195 14h5M1 15h5M195 15h5M1 16h5M195 16h5M1 17h5M195 17h5M1 18h5M195 18h5M1 19h5M195 19h5M1 20h5M195 20h5M1 21h5M195 21h5M1 22h5M195 22h5M1 23h5M195 23h5M1 24h5M195 24h5M1 25h5M195 25h5M1 26h5M195 26h5M1 27h5M195 27h5M1 28h5M195 28h5M1 29h5M195 29h5M1 30h5M195 30h5M1 31h5M195 31h5M1 32h5M195 32h5M1 33h5M195 33h5M1 34h5M195 34h5M1 35h5M195 35h5M1 36h5M195 36h5M1 37h5M195 37h5M1 38h5M195 38h5M1 39h5M195 39h5M1 40h5M190 40h10M1 41h10M190 41h5M6 42h5M190 42h5M6 43h5M190 43h5M6 44h5M190 44h5M6 45h5M11 46h179M11 47h179M11 48h179M11 49h179" />
<!-- bg-color   -->
<path stroke="#ee4e36" d="M11 5h179M11 6h179M11 7h179M11 8h179M11 9h179M9 10h186M9 11h186M9 12h186M9 13h186M9 14h186M9 15h43M66 15h10M80 15h60M144 15h51M9 16h43M66 16h10M80 16h60M144 16h51M9 17h43M66 17h10M80 17h60M144 17h51M9 18h40M52 18h20M88 18h8M106 18h12M120 18h7M133 18h3M152 18h43M9 19h40M52 19h20M88 19h8M106 19h12M120 19h7M133 19h3M152 19h43M9 20h40M52 20h20M88 20h8M106 20h12M120 20h7M133 20h3M152 20h43M9 21h40M52 21h20M88 21h8M106 21h12M120 21h7M133 21h3M152 21h43M9 22h67M80 22h26M109 22h9M120 22h3M127 22h13M144 22h51M9 23h43M66 23h10M80 23h26M109 23h9M120 23h3M127 23h13M144 23h51M9 24h43M66 24h10M80 24h26M109 24h9M120 24h3M127 24h13M144 24h51M9 25h43M66 25h10M80 25h16M109 25h9M123 25h17M144 25h51M9 26h57M69 26h7M80 26h16M109 26h9M123 26h17M144 26h51M9 27h57M69 27h7M80 27h16M109 27h9M123 27h17M144 27h51M9 28h57M69 28h7M80 28h13M96 28h10M109 28h9M120 28h20M144 28h51M9 29h41M66 29h10M80 29h13M96 29h10M109 29h9M120 29h20M144 29h51M9 30h41M66 30h14M88 30h5M96 30h10M109 30h9M120 30h24M152 30h43M9 31h41M66 31h14M88 31h5M96 31h10M109 31h9M120 31h24M152 31h43M9 32h41M66 32h14M88 32h8M112 32h6M120 32h24M152 32h43M9 33h71M88 33h8M112 33h6M120 33h24M152 33h43M9 34h87M112 34h6M120 34h75M9 35h186M9 36h186M9 37h186M13 38h182M13 39h182M13 40h177M15 41h175" />
<path stroke="#847e87" d="M6 10h3M6 11h3M6 12h3M6 13h3M6 14h3M6 15h3M6 16h3M6 17h3M6 18h3M6 19h3M6 20h3M6 21h3M6 22h3M6 23h3M6 24h3M6 25h3M6 26h3M6 27h3M6 28h3M6 29h3M6 30h3M6 31h3M6 32h3M6 33h3M6 34h3M6 35h3M6 36h3M6 37h3M6 38h7M6 39h7M6 40h7M11 41h4M11 42h4M11 43h4" />
<!--  font-color  -->
<path stroke="#ffd73e" d="M52 15h14M76 15h4M140 15h4M52 16h14M76 16h4M140 16h4M76 17h4M140 17h4M49 18h3M72 18h16M96 18h10M118 18h2M127 18h6M136 18h16M49 19h3M72 19h16M96 19h10M118 19h2M127 19h6M136 19h16M49 20h3M72 20h16M96 20h10M118 20h2M127 20h6M136 20h16M76 21h4M118 21h2M140 21h4M76 22h4M106 22h3M118 22h2M123 22h4M140 22h4M52 23h14M76 23h4M106 23h3M118 23h2M123 23h4M140 23h4M52 24h14M76 24h4M106 24h3M118 24h2M140 24h4M76 25h4M96 25h13M118 25h5M140 25h4M66 26h3M76 26h4M96 26h13M118 26h5M140 26h4M66 27h3M76 27h4M106 27h3M118 27h2M140 27h4M76 28h4M93 28h3M106 28h3M118 28h2M140 28h4M50 29h16M93 29h3M106 29h3M118 29h2M50 30h16M80 30h8M106 30h3M118 30h2M144 30h8M50 31h16M80 31h8M106 31h3M118 31h2M144 31h8M80 32h8M96 32h16M118 32h2M144 32h8M96 33h16M118 33h2" />
<path stroke="#23272a" d="M52 17h14M49 21h3M72 21h4M80 21h8M96 21h10M127 21h6M136 21h4M144 21h8M123 24h4M52 25h14M96 27h10M120 27h3M66 28h3M76 29h4M140 29h4M93 30h3M93 31h3M50 32h16M80 33h8M144 33h8M96 34h16M118 34h2" />
<path stroke="#99aab5" d="M15 42h175M15 43h175" />
<path stroke="#222034" d="M11 44h179M11 45h179" />
</svg>