<svg xmlns="http://www.w3.org/2000/svg" viewBox="0 -0.5 30 30" shape-rendering="crispEdges">
<metadata>Made with Pixels to Svg https://codepen.io/shshaw/pen/XbxvNj</metadata>
<path stroke="#2c2f33" d="M6 0h18M6 1h18M6 2h18M3 3h3M24 3h3M3 4h3M24 4h3M3 5h3M24 5h3M0 6h3M27 6h3M0 7h3M27 7h3M0 8h3M27 8h3M0 9h3M27 9h3M0 10h3M27 10h3M0 11h3M27 11h3M0 12h3M27 12h3M0 13h3M27 13h3M0 14h3M27 14h3M0 15h3M27 15h3M0 16h3M27 16h3M0 17h3M27 17h3M0 18h3M27 18h3M0 19h3M27 19h3M0 20h3M27 20h3M0 21h3M27 21h3M0 22h3M27 22h3M0 23h3M27 23h3M3 24h3M24 24h3M3 25h3M24 25h3M3 26h3M24 26h3M6 27h18M6 28h18M6 29h18" />
<path stroke="#ee4e36" d="M6 3h18M6 4h18M6 5h18M3 6h24M3 7h24M3 8h4M10 8h9M22 8h5M3 9h4M10 9h9M22 9h5M3 10h4M10 10h9M22 10h5M3 11h7M13 11h3M19 11h8M3 12h7M13 12h3M19 12h8M3 13h7M13 13h3M19 13h8M3 14h10M16 14h11M3 15h10M16 15h11M3 16h10M16 16h11M3 17h7M13 17h3M19 17h8M3 18h7M13 18h3M19 18h8M3 19h7M13 19h3M19 19h8M3 20h4M10 20h9M22 20h5M3 21h4M10 21h9M22 21h5M3 22h4M10 22h9M22 22h5M3 23h24M6 24h18M6 25h18M6 26h18" />
<path stroke="#ffd73e" d="M7 8h3M19 8h3M7 9h3M19 9h3M7 10h3M19 10h3M10 11h3M16 11h3M10 12h3M16 12h3M10 13h3M16 13h3M13 14h3M13 15h3M13 16h3M10 17h3M16 17h3M10 18h3M16 18h3M10 19h3M16 19h3M7 20h3M19 20h3M7 21h3M19 21h3M7 22h3M19 22h3" />
</svg>