<svg xmlns="http://www.w3.org/2000/svg" viewBox="0 -0.5 30 30" shape-rendering="crispEdges">
<metadata>Made with Pixels to Svg https://codepen.io/shshaw/pen/XbxvNj</metadata>
<path stroke="#2c2f33" d="M6 0h18M6 1h18M6 2h18M3 3h3M24 3h3M3 4h3M24 4h3M3 5h3M24 5h3M0 6h3M27 6h3M0 7h3M27 7h3M0 8h3M27 8h3M0 9h3M27 9h3M0 10h3M27 10h3M0 11h3M27 11h3M0 12h3M27 12h3M0 13h3M27 13h3M0 14h3M27 14h3M0 15h3M27 15h3M0 16h3M27 16h3M0 17h3M27 17h3M0 18h3M27 18h3M0 19h3M27 19h3M0 20h3M27 20h3M0 21h3M27 21h3M0 22h3M27 22h3M0 23h3M27 23h3M3 24h3M24 24h3M3 25h3M24 25h3M3 26h3M24 26h3M6 27h18M6 28h18M6 29h18" />
<path stroke="#ee4e36" d="M6 3h18M6 4h18M6 5h18M3 6h24M3 7h24M3 8h2M24 8h3M3 9h2M24 9h3M3 10h2M24 10h3M3 11h24M3 12h24M3 13h2M24 13h3M3 14h2M24 14h3M3 15h2M24 15h3M3 16h24M3 17h24M3 18h2M24 18h3M3 19h2M24 19h3M3 20h2M24 20h3M3 21h24M3 22h24M3 23h24M6 24h18M6 25h18M6 26h18" />
<path stroke="#ffd73e" d="M5 8h19M5 9h19M5 10h19M5 13h19M5 14h19M5 15h19M5 18h19M5 19h19M5 20h19" />
</svg>