<svg xmlns="http://www.w3.org/2000/svg" viewBox="0 -0.5 40 40" shape-rendering="crispEdges">
<metadata>Made with Pixels to Svg https://codepen.io/shshaw/pen/XbxvNj</metadata>
<path stroke="#000000" d="M12 0h8M12 1h8M12 2h8M12 3h8M4 4h8M20 4h8M4 5h8M20 5h8M4 6h8M20 6h8M4 7h8M20 7h8M4 8h4M24 8h4M4 9h4M24 9h4M4 10h4M24 10h4M4 11h4M24 11h4M0 12h4M28 12h4M0 13h4M28 13h4M0 14h4M28 14h4M0 15h4M28 15h4M0 16h4M28 16h4M0 17h4M28 17h4M0 18h4M28 18h4M0 19h4M28 19h4M4 20h4M24 20h4M4 21h4M24 21h4M4 22h4M24 22h4M4 23h4M24 23h4M4 24h8M20 24h12M4 25h8M20 25h12M4 26h8M20 26h12M4 27h8M20 27h12M12 28h8M24 28h12M12 29h8M24 29h12M12 30h8M24 30h12M12 31h8M24 31h12M28 32h12M28 33h12M28 34h12M28 35h12M32 36h8M32 37h8M32 38h8M32 39h8" />
</svg>